<svg version="1.1" id="Layer_1" xmlns="http://www.w3.org/2000/svg" xmlns:xlink="http://www.w3.org/1999/xlink" x="0px" y="0px"
     width="100%" viewBox="0 0 1024 816" enable-background="new 0 0 1024 816" xml:space="preserve">
<path fill="#000000" opacity="1.000000" stroke="none" 
    d="
M283.812317,607.898071 
    C289.511993,594.706482 295.000946,581.836182 300.693176,569.056396 
    C302.044739,566.021912 301.935425,563.658752 300.202301,560.725708 
    C284.168304,533.590027 277.375824,503.964905 281.097229,472.933472 
    C287.844849,416.667999 317.622192,376.201874 369.565521,353.172180 
    C423.488342,329.264832 490.804199,342.924286 530.411438,386.354614 
    C546.619934,404.127594 565.671143,414.401154 588.982788,417.268921 
    C606.502502,419.424133 623.629333,416.929382 639.605591,409.223663 
    C644.906372,406.666992 649.350525,406.597015 654.729370,408.579590 
    C666.906067,413.067688 679.300842,416.965271 691.616943,421.072998 
    C692.995239,421.532684 694.437988,421.798920 696.914307,422.422821 
    C692.536804,412.219574 689.045105,402.534607 684.318237,393.495605 
    C679.524109,384.328094 679.124634,377.192719 684.811096,367.248932 
    C717.652893,309.819794 683.543457,239.665039 621.778259,226.104492 
    C581.547302,217.271835 548.311829,230.401169 522.563416,262.393463 
    C515.783325,270.817749 507.577118,274.875458 496.766052,272.386475 
    C485.978394,269.902832 479.870514,262.960114 478.083282,252.142105 
    C477.052856,245.904999 478.546295,240.091766 482.224030,235.114578 
    C504.883514,204.448547 534.846069,184.743240 572.360107,177.860168 
    C620.308777,169.062546 662.955994,181.177048 699.037170,214.035767 
    C724.695679,237.402649 739.689209,266.779175 744.376526,301.285095 
    C748.886047,334.482849 742.474670,365.517487 725.753906,394.439026 
    C723.995911,397.479736 724.301453,399.898407 725.585510,402.840515 
    C735.643982,425.887756 745.617004,448.972351 755.567200,472.066620 
    C756.398254,473.995514 757.723206,475.828613 757.422852,478.420654 
    C754.799133,478.922485 752.574646,477.569092 750.311096,476.819946 
    C724.386780,468.240112 698.471802,459.631256 672.598267,450.899933 
    C669.700806,449.922211 667.324219,449.963562 664.541138,451.328796 
    C642.278015,462.250092 618.653870,467.526611 593.935852,466.120392 
    C554.191345,463.859314 520.047913,448.991394 492.936676,419.178223 
    C475.907318,400.451691 454.537628,391.237366 429.320648,390.186340 
    C380.800537,388.164001 340.339294,422.721863 330.949554,466.128052 
    C325.160248,492.890198 329.831818,517.712524 344.856598,540.510620 
    C347.148834,543.988770 347.594604,546.746521 345.839722,550.558411 
    C340.826904,561.447205 336.178711,572.504456 331.440796,583.518555 
    C330.812683,584.978699 329.664856,586.384094 330.335205,588.251343 
    C332.281525,588.939209 333.890533,587.761353 335.543732,587.215637 
    C348.824554,582.831604 362.083832,578.381775 375.332062,573.899902 
    C377.789062,573.068726 379.937073,572.938354 382.468811,574.172424 
    C422.605072,593.736694 466.789429,585.585571 497.530182,552.731323 
    C505.179138,544.556519 513.956299,541.503418 524.526733,544.781921 
    C541.611206,550.080750 547.150757,569.994324 535.246887,583.411377 
    C518.102783,602.734680 497.433319,616.994873 472.814667,625.137878 
    C435.020660,637.638794 398.058075,635.255615 362.110565,618.199768 
    C358.801056,616.629578 356.043060,616.580017 352.646973,617.730347 
    C326.786163,626.489746 300.864594,635.069885 274.958557,643.695618 
    C273.088989,644.318115 271.264557,645.208374 267.853455,644.925171 
    C273.266846,632.378296 278.471436,620.315430 283.812317,607.898071 
z"/>
<path fill="#000000" opacity="1.000000" stroke="none" 
    d="
M529.644165,266.662048 
    C552.057678,239.658310 580.078552,226.939865 614.984985,231.617126 
    C655.332092,237.023438 686.463135,269.985199 690.472046,310.658203 
    C692.731079,333.576569 686.947021,354.225983 673.697937,372.812622 
    C671.379883,376.064575 671.334473,378.635101 672.832581,381.939575 
    C675.994995,388.915375 679.003723,395.961487 682.015991,403.004181 
    C682.639587,404.462280 683.844055,405.882355 682.866089,407.729126 
    C680.799377,408.819885 678.995422,407.494690 677.185669,406.934174 
    C673.690247,405.851501 670.166626,404.749725 666.843994,403.239380 
    C655.314392,397.998413 644.954956,398.477875 632.435547,403.273682 
    C598.336792,416.335907 567.006348,408.912415 539.866760,384.425323 
    C520.848206,367.265564 511.636871,345.495605 511.252960,320.205444 
    C510.953613,300.485107 516.964661,282.509918 529.644165,266.662048 
M589.499939,339.602264 
    C609.310974,339.593262 629.122070,339.596497 648.933044,339.554626 
    C650.745911,339.550781 652.654175,339.561676 654.346985,339.025330 
    C656.628479,338.302460 658.726135,336.835205 658.401062,334.045197 
    C658.078064,331.272614 656.238708,329.620697 653.383057,329.338654 
    C652.226440,329.224426 651.055420,329.225342 649.890991,329.225128 
    C619.591736,329.219391 589.292419,329.192413 558.993286,329.255188 
    C555.149170,329.263123 549.822327,328.366425 549.880127,334.159821 
    C549.933350,339.509125 555.059570,339.464783 559.033752,339.525208 
    C568.853943,339.674469 578.677612,339.590820 589.499939,339.602264 
M578.500000,283.108795 
    C571.841858,283.114532 565.182922,283.061127 558.525879,283.150513 
    C555.111328,283.196320 551.036194,282.518829 550.259705,287.413574 
    C549.723633,290.792877 553.057922,292.889557 558.611816,293.018372 
    C559.111023,293.029938 559.610474,293.034607 560.109802,293.034546 
    C589.904724,293.031555 619.699585,293.031708 649.494507,293.019073 
    C653.362793,293.017426 658.191650,293.329773 658.157410,288.045319 
    C658.123108,282.756409 653.247803,283.152649 649.410095,283.147675 
    C626.106750,283.117401 602.803345,283.119019 578.500000,283.108795 
M607.500000,316.081390 
    C612.991516,316.059998 618.483032,316.049866 623.974487,316.013611 
    C628.300354,315.985046 632.626831,315.961670 636.951416,315.863953 
    C639.594543,315.804230 641.516418,314.573425 641.795837,311.813324 
    C642.097229,308.836334 640.380798,307.143402 637.574768,306.584808 
    C636.281006,306.327240 634.931152,306.264954 633.606445,306.262482 
    C613.304504,306.224518 593.002625,306.210388 572.700684,306.194458 
    C571.869019,306.193817 571.027771,306.155670 570.207520,306.262177 
    C567.424988,306.623505 565.400574,308.040771 565.344360,310.985809 
    C565.287659,313.959534 567.348877,315.434570 570.070679,315.868439 
    C571.701172,316.128326 573.387329,316.095825 575.048523,316.097504 
    C585.532349,316.108002 596.016174,316.091187 607.500000,316.081390 
M613.500000,361.907288 
    C620.828552,361.892395 628.157104,361.892975 635.485535,361.855713 
    C638.834473,361.838715 641.715454,360.694580 641.723083,356.926422 
    C641.730896,353.057495 638.633362,352.247131 635.405518,352.066223 
    C635.073059,352.047577 634.739563,352.041840 634.406555,352.041809 
    C613.753113,352.040039 593.099670,352.034637 572.446228,352.043640 
    C569.129272,352.045105 565.542358,352.349792 565.441589,356.584686 
    C565.335632,361.040802 569.057251,361.570709 572.527405,361.820404 
    C573.853943,361.915863 575.190735,361.881470 576.522888,361.882660 
    C588.515259,361.893555 600.507629,361.899170 613.500000,361.907288 
z"/>
<path fill="#000000" opacity="1.000000" stroke="none" 
    d="
M398.431946,452.181152 
    C399.768982,452.607727 400.716736,452.926758 401.632996,453.319427 
    C406.771423,455.521240 411.534546,460.219147 417.378632,458.647583 
    C426.769135,456.122375 436.269928,453.255890 443.559082,446.150482 
    C445.888214,443.880066 448.920990,442.414062 450.145111,438.875244 
    C452.353119,432.492310 451.079620,428.088409 445.214630,424.624329 
    C443.357544,423.527466 440.926849,422.729706 440.979614,420.200745 
    C441.038910,417.356140 443.716156,416.796051 445.837830,415.848511 
    C449.702271,414.122650 453.932648,413.114105 457.868866,410.169189 
    C448.503113,399.644379 435.089569,403.834045 423.753632,399.723114 
    C425.984741,397.368774 428.418976,397.855774 430.516968,398.027740 
    C456.647675,400.169800 479.266235,409.490387 496.242950,430.334625 
    C536.091309,479.261047 513.418091,553.972656 453.108643,572.312378 
    C429.386444,579.526184 406.401093,577.700806 384.336151,566.252991 
    C381.294373,564.674805 378.705292,564.411011 375.403717,565.601379 
    C366.328796,568.873535 357.093658,571.701355 347.920563,574.700806 
    C346.975372,575.009827 346.024658,575.374146 344.921082,574.754211 
    C343.866425,573.062134 345.192688,571.685608 345.805084,570.250366 
    C348.877716,563.049194 351.840149,555.792908 355.194763,548.723755 
    C356.678833,545.596436 356.400421,543.357849 354.357086,540.586487 
    C341.540344,523.202698 335.306061,503.650177 336.807617,482.067963 
    C338.620148,456.016205 349.333740,434.351746 370.241943,418.161743 
    C371.004547,417.571228 371.699615,416.745605 372.983063,416.920654 
    C374.741089,418.540741 373.418243,419.979248 372.315430,421.040161 
    C369.479401,423.768341 368.106476,427.415283 365.932007,430.541443 
    C357.119385,443.211182 366.611908,453.326752 378.318512,455.810211 
    C381.599670,456.506287 384.869476,456.136017 387.933777,454.211853 
    C390.960632,452.311188 394.423920,451.664001 398.431946,452.181152 
M395.330750,484.194946 
    C391.183197,477.289551 384.442078,474.521088 378.179474,477.151123 
    C371.224579,480.071960 367.773651,488.041351 370.519684,494.840271 
    C373.459564,502.119080 381.348877,505.672089 388.425201,502.304535 
    C397.299988,498.081116 405.870728,495.626892 414.437012,502.763794 
    C415.224945,503.420258 416.238770,503.752136 417.175446,503.003632 
    C418.073456,502.286011 418.043213,501.224701 417.777893,500.251099 
    C416.661011,496.152435 413.889557,494.178070 409.802429,492.997192 
    C404.524933,491.472382 397.164276,493.077026 395.330750,484.194946 
M419.134125,491.316895 
    C419.788757,497.278809 423.373840,501.411438 429.448914,503.207062 
    C433.834717,504.503357 439.979889,502.214081 443.132874,498.109314 
    C446.517975,493.702362 446.937134,487.867249 444.209595,483.120422 
    C441.335052,478.117859 435.224976,475.348297 429.747772,476.565216 
    C423.607544,477.929443 419.756561,482.977081 419.134125,491.316895 
M478.619019,476.927002 
    C477.291687,477.608582 475.879364,478.164276 474.651520,478.993195 
    C469.046478,482.777283 467.277039,491.002655 470.766144,496.718231 
    C474.534790,502.891632 482.322144,505.008301 488.528503,501.546204 
    C494.255402,498.351562 496.870544,492.325470 495.103821,486.394501 
    C493.001587,479.337006 487.434143,475.894928 478.619019,476.927002 
z"/>
<path fill="#000000" opacity="1.000000" stroke="none" 
    d="
M399.052429,402.502106 
    C400.208527,402.294098 401.106384,402.156036 401.635529,402.940521 
    C402.224487,403.813690 401.701141,404.596588 400.913879,404.921112 
    C397.076996,406.502686 393.335327,408.517792 388.177155,408.312317 
    C391.236786,404.412689 395.118591,403.751740 399.052429,402.502106 
z"/>
</svg>